# xmcd
#
# Track frame offsets: 
#        183
#        13915
#        26220
#        40013
#        50908
#        62845
#        76345
#        86945
#        96965
#        108023
#        119153
#        131295
#        150795
#        164825
#        174613
#        186703
#        201115
#        213263
#
# Disc length: 3008 seconds
#
# Revision: 6
# Processed by: cddbd v1.5.2PL0 Copyright (c) Steve Scherf et al.
# Submitted via: ExactAudioCopyFreeDBPlugin 1.0
#
DISCID=040bbe12
DTITLE=Koko Taylor - Wang Dang Doodle
DYEAR=1900
DGENRE=Blues
TTITLE0=What Kind Of Man Is This?
TTITLE1=Don't Mess With The Messer
TTITLE2=I Got What It Takes
TTITLE3=Whatever I Am, You Made Me
TTITLE4=I'm A Little Mixed Up
TTITLE5=Wang Dang Doodle
TTITLE6=Blues Heaven
TTITLE7=(I Got) All You Need
TTITLE8=Good Advice
TTITLE9=Egg Or The Hen
TTITLE10=Just Love Me
TTITLE11=Insane Asylum
TTITLE12=Separate Or Integrate
TTITLE13=I Don't Care Who Knows
TTITLE14=Yes, It's Good For You
TTITLE15=Twenty-Nine Ways
TTITLE16=Nitty Gritty
TTITLE17=I Love A Lover Like You
EXTD=
EXTT0=
EXTT1=
EXTT2=
EXTT3=
EXTT4=
EXTT5=
EXTT6=
EXTT7=
EXTT8=
EXTT9=
EXTT10=
EXTT11=
EXTT12=
EXTT13=
EXTT14=
EXTT15=
EXTT16=
EXTT17=
PLAYORDER=
